<svg width="226" height="114" viewBox="0 0 226 114" fill="none" id="svg806034229_6525">
<path d="M0 21.053C0 16.9835 3.29896 13.6846 7.36842 13.6846L213.424 13.6846C219.962 13.6846 225.263 18.9853 225.263 25.5241V87.7648C225.263 91.0342 222.613 93.6846 219.343 93.6846L5.91975 93.6846C2.65036 93.6846 0 91.0342 0 87.7648V21.053Z" fill="#DE4750"></path>
<circle cx="178.817" cy="86.1304" r="13.6138" fill="#2B2D50"></circle>
<circle cx="52.9409" cy="86.1304" r="13.6138" fill="#2B2D50"></circle>
<circle cx="178.817" cy="86.1303" r="6.23964" fill="url(#svg806034229_6525_paint0_linear_39_1164)"></circle>
<circle cx="52.9408" cy="86.1303" r="6.23964" fill="url(#svg806034229_6525_paint1_linear_39_1164)"></circle>
<path d="M190.951 32.0117H225.179V70.0159H180.445C177.906 70.0159 176.121 67.5165 176.946 65.1148L187.452 34.5103C187.965 33.0155 189.371 32.0117 190.951 32.0117Z" fill="url(#svg806034229_6525_paint2_linear_39_1164)"></path>
<g style="mix-blend-mode:soft-light">
<path d="M225.263 92.632V24.9583C225.263 23.0953 224.732 21.2708 223.732 19.699C222.328 17.4929 220.304 15.7497 217.915 14.6877L216.842 14.2109L174.21 97.8951L225.263 92.632Z" fill="url(#svg806034229_6525_paint3_linear_39_1164)"></path>
</g>
<path d="M26.9441 33.8368C26.9441 32.2021 28.2693 30.877 29.904 30.877H176.87C178.961 30.877 180.392 32.9859 179.621 34.9291L166.656 67.5808C166.208 68.7082 165.118 69.4484 163.905 69.4484H29.904C28.2693 69.4484 26.9441 68.1232 26.9441 66.4885V33.8368Z" fill="#373563"></path>
<path d="M208.639 0.901524L213.863 13.2048C214.277 14.1808 213.561 15.2632 212.501 15.2632H190.954C190.136 15.2632 189.474 14.6006 189.474 13.7832V1.47994C189.474 0.662591 190.136 0 190.954 0H207.276C207.87 0 208.407 0.354937 208.639 0.901524Z" fill="#DE4750"></path>
<path d="M4.86168 2.71041V15.8889C4.86168 16.7062 5.52427 17.3688 6.34162 17.3688H21.4088C22.5533 17.3688 23.2647 16.1252 22.6845 15.1387L14.9339 1.96016C14.668 1.50806 14.1827 1.23047 13.6582 1.23047H6.34162C5.52427 1.23047 4.86168 1.89306 4.86168 2.71041Z" fill="#DE4750"></path>
<path d="M207.368 4.21094H12.7463C11.5203 4.21094 10.5264 5.20482 10.5264 6.43084V13.6846" stroke="#DE4750" stroke-width="3.15789"></path>
<g style="mix-blend-mode:overlay">
<path d="M185.057 84.9953C184.324 80.5171 179.683 79.653 177.683 79.8901C184.542 81.3124 183.881 89.121 178.817 92.3693C181.818 91.3026 185.789 89.4734 185.057 84.9953Z" fill="url(#svg806034229_6525_paint4_linear_39_1164)"></path>
</g>
<g style="mix-blend-mode:overlay">
<path d="M59.1803 84.9953C58.3606 80.5171 53.8068 79.653 51.8062 79.8901C58.6656 81.3124 58.0042 89.121 52.9406 92.3693C55.9416 91.3026 59.9999 89.4734 59.1803 84.9953Z" fill="url(#svg806034229_6525_paint5_linear_39_1164)"></path>
</g>
<g style="mix-blend-mode:soft-light">
<path d="M160.242 65.4781C165.688 65.0243 168.751 61.8857 169.318 60.373L166.635 67.5281C166.202 68.6833 165.134 69.4487 163.9 69.4487C126.407 69.4494 49.5178 69.4694 29.9471 69.4732C27.8653 69.4736 26.3663 67.478 26.9443 65.4781C68.919 65.6672 154.797 65.9319 160.242 65.4781Z" fill="#D9D9D9"></path>
</g>
<g style="mix-blend-mode:soft-light">
<path d="M225.474 66.0457H183.164C181.151 66.0457 179.234 65.1867 177.895 63.6846C175.803 66.2013 177.593 70.0163 180.865 70.0163H225.474V66.0457Z" fill="#D9D9D9"></path>
</g>
<g style="mix-blend-mode:soft-light">
<rect x="87.8945" y="77.5117" width="64.2105" height="5.26316" rx="1.47994" fill="#D9D9D9"></rect>
</g>
<g style="mix-blend-mode:soft-light">
<rect x="8.42114" y="77.3896" width="11.3448" height="5.6724" rx="0.739969" fill="#D9D9D9"></rect>
</g>
<g style="mix-blend-mode:soft-light">
<rect x="209.591" y="77.3896" width="15.8827" height="5.6724" rx="1.47994" fill="#D9D9D9"></rect>
</g>
<path d="M205.844 2.10547H191.579V14.737H201.836H211.037C211.793 14.737 212.302 13.9652 212.005 13.2708L207.78 3.38343C207.449 2.60829 206.687 2.10547 205.844 2.10547Z" fill="url(#svg806034229_6525_paint6_linear_39_1164)"></path>
<g style="mix-blend-mode:soft-light">
<path d="M191.579 14.737L197.895 2.10547H205.79L198.948 14.737H191.579Z" fill="url(#svg806034229_6525_paint7_linear_39_1164)"></path>
</g>
<path d="M46.0884 24.6182L40.559 36.6119" stroke="#DE4750" stroke-width="3.15789"></path>
<path d="M78.4424 24.5L72.4159 37.5718" stroke="#DE4750" stroke-width="3.15789"></path>
<path d="M107.796 24.2109L102.498 35.7029" stroke="#DE4750" stroke-width="3.15789"></path>
<path d="M139.596 23.8535L132.803 38.5879" stroke="#DE4750" stroke-width="3.15789"></path>
<path d="M172.228 23.8535L165.435 38.5879" stroke="#DE4750" stroke-width="3.15789"></path>
<g style="mix-blend-mode:soft-light">
<path d="M112.632 33.6846L72.6033 113.685H0V42.1056C0 37.4548 3.77023 33.6846 8.42105 33.6846H112.632Z" fill="url(#svg806034229_6525_paint8_linear_39_1164)"></path>
</g>
<defs>
<linearGradient id="svg806034229_6525_paint0_linear_39_1164" x1="178.817" y1="79.8906" x2="178.817" y2="92.3699" gradientUnits="userSpaceOnUse">
<stop stop-color="#3D3D7D"></stop>
<stop offset="1" stop-color="#5D0AB3" stop-opacity="0"></stop>
</linearGradient>
<linearGradient id="svg806034229_6525_paint1_linear_39_1164" x1="52.9408" y1="79.8906" x2="52.9408" y2="92.3699" gradientUnits="userSpaceOnUse">
<stop stop-color="#3D3D7D"></stop>
<stop offset="1" stop-color="#5D0AB3" stop-opacity="0"></stop>
</linearGradient>
<linearGradient id="svg806034229_6525_paint2_linear_39_1164" x1="200.221" y1="32.0117" x2="200.221" y2="70.0159" gradientUnits="userSpaceOnUse">
<stop stop-color="#433268"></stop>
<stop offset="1" stop-color="#25375A"></stop>
</linearGradient>
<linearGradient id="svg806034229_6525_paint3_linear_39_1164" x1="211.294" y1="40.7366" x2="211.294" y2="67.1739" gradientUnits="userSpaceOnUse">
<stop stop-color="#D9D9D9"></stop>
<stop offset="1" stop-color="#D9D9D9" stop-opacity="0"></stop>
</linearGradient>
<linearGradient id="svg806034229_6525_paint4_linear_39_1164" x1="183.33" y1="79.3085" x2="183.33" y2="91.8021" gradientUnits="userSpaceOnUse">
<stop stop-color="#D9D9D9"></stop>
<stop offset="1" stop-color="#D9D9D9" stop-opacity="0"></stop>
</linearGradient>
<linearGradient id="svg806034229_6525_paint5_linear_39_1164" x1="57.4531" y1="79.3085" x2="57.4531" y2="91.8021" gradientUnits="userSpaceOnUse">
<stop stop-color="#D9D9D9"></stop>
<stop offset="1" stop-color="#D9D9D9" stop-opacity="0"></stop>
</linearGradient>
<linearGradient id="svg806034229_6525_paint6_linear_39_1164" x1="201.836" y1="2.10547" x2="201.836" y2="14.737" gradientUnits="userSpaceOnUse">
<stop stop-color="#403367"></stop>
<stop offset="1" stop-color="#373563"></stop>
</linearGradient>
<linearGradient id="svg806034229_6525_paint7_linear_39_1164" x1="198.684" y1="2.10547" x2="198.684" y2="14.737" gradientUnits="userSpaceOnUse">
<stop stop-color="#D9D9D9"></stop>
<stop offset="1" stop-color="#D9D9D9" stop-opacity="0"></stop>
</linearGradient>
<linearGradient id="svg806034229_6525_paint8_linear_39_1164" x1="62.3104" y1="33.6846" x2="62.3104" y2="115.768" gradientUnits="userSpaceOnUse">
<stop stop-color="#F16565"></stop>
<stop offset="1" stop-color="#FFF0F0" stop-opacity="0"></stop>
</linearGradient>
</defs>
</svg>