<svg viewBox="0 0 2416 171" width="2416" height="171" id="svg9521166825"><path d="M 722.999 137.287 L 656.583 182.159 L 815.595 182.159 L 751.557 137.499 C 742.998 131.529 731.646 131.445 722.999 137.287 Z" fill="rgb(245,236,255)"></path><path d="M 40.755 145.413 L 5.281 169.251 L 103.27 169.251 L 69.208 145.624 C 60.671 139.703 49.378 139.619 40.755 145.413 Z" fill="rgb(245,236,255)"></path><path d="M 583.35 137.287 L 516.934 182.159 L 675.946 182.159 L 611.908 137.499 C 603.349 131.529 591.997 131.445 583.35 137.287 Z" fill="rgb(230,209,255)"></path><path d="M 87.87 144.308 L 38.726 177.466 L 163.706 177.466 L 116.402 144.519 C 107.848 138.561 96.511 138.477 87.87 144.308 Z" fill="rgb(230,209,255)"></path><path d="M 506.118 141.728 L 454.151 176.292 L 584.412 176.292 L 534.372 141.936 C 525.88 136.105 514.696 136.023 506.118 141.728 Z" fill="rgb(230,209,255)"></path><path d="M 248.319 95.748 C 207.617 127.142 150.319 156.956 104.443 168.665 L 493.464 168.665 C 390.925 168.665 349.802 131.748 313.916 97.41 C 304.992 88.872 293.127 84.172 280.776 84.172 C 268.975 84.172 257.663 88.541 248.319 95.748 Z" fill="rgb(247,240,255)"></path><path d="M 206.539 43.978 C 206.539 26.317 220.725 12 238.224 12 C 255.723 12 269.909 26.317 269.909 43.978 C 269.909 61.639 255.723 75.957 238.224 75.957 C 220.725 75.957 206.539 61.639 206.539 43.978 Z" fill="rgb(245,236,255)"></path><path d="M 609.642 130.232 L 609.642 142.26 M 620.791 128.765 L 620.791 142.26 M 630.472 125.538 L 630.472 142.26 M 641.62 119.67 L 641.62 142.26 M 652.182 110.575 L 652.182 142.26 M 662.157 99.427 L 662.157 142.26" fill="transparent" stroke-width="1.17352" stroke="rgb(240,225,255)" stroke-miterlimit="10" stroke-dasharray=""></path><path d="M 749.584 130.818 L 749.584 142.847 M 738.436 129.352 L 738.436 142.847 M 728.754 126.124 L 728.754 142.847 M 717.606 120.257 L 717.606 142.847 M 707.044 111.162 L 707.044 142.847 M 697.069 100.014 L 697.069 142.847" fill="transparent" stroke-width="1.17352" stroke="rgb(240,225,255)" stroke-miterlimit="10" stroke-dasharray=""></path><path d="M 340.474 49.742 L 334.531 167.585 L 349.823 167.585 L 343.822 49.742 Z" fill="rgb(236,220,255)"></path><path d="M 341.727 13.76 L 341.727 30.852 L 343.526 30.852 L 343.526 13.76 Z" fill="rgb(230,209,255)"></path><path d="M 330.932 41.647 L 354.321 41.647 L 354.321 41.647 C 354.321 46.615 350.294 50.642 345.326 50.642 L 339.928 50.642 C 334.96 50.642 330.932 46.615 330.932 41.647 Z" fill="rgb(231,208,255)"></path><path d="M 354.321 40.746 L 331.103 40.746 C 330.269 36.97 332.246 29.052 342.533 29.052 C 352.821 29.052 354.321 36.97 354.321 40.746 Z" fill="rgb(231,208,255)"></path><path d="M 461.192 168.665 L 461.192 114.683 L 424.813 114.683 L 424.813 168.665 Z" fill="rgb(245,236,255)"></path><path d="M 418.946 168.664 L 418.946 77.13 L 381.98 77.13 L 381.98 168.664 Z" fill="rgb(245,236,255)"></path><path d="M 424.813 114.683 L 411.905 116.458 L 411.905 168.664 L 424.813 168.664 Z" fill="rgb(240,225,255)"></path><path d="M 381.98 77.13 L 369.071 80.141 L 369.071 168.664 L 381.98 168.664 Z" fill="rgb(240,225,255)"></path><path d="M 485.2 52.905 L 485.2 41.21 L 463.61 41.21 L 463.61 52.905 Z" fill="rgb(245,236,255)"></path><path d="M 463.61 41.21 L 456.414 42.881 L 456.414 52.905 L 463.61 52.905 Z" fill="rgb(236,220,255)"></path><path d="M 489.699 65.498 L 489.699 50.205 L 461.813 50.205 L 461.813 65.498 Z" fill="rgb(245,236,255)"></path><path d="M 461.812 50.205 L 451.917 52.39 L 451.917 65.498 L 461.812 65.498 Z" fill="rgb(236,220,255)"></path><path d="M 495.995 168.949 L 495.995 60.102 L 459.113 60.102 L 459.113 168.949 Z" fill="rgb(245,236,255)"></path><path d="M 459.113 60.102 L 446.519 63.682 L 446.519 168.949 L 459.113 168.949 Z" fill="rgb(236,220,255)"></path><path d="M 479.001 31.314 L 481.602 42.109 L 464.51 42.109 L 467.111 31.314 Z" fill="rgb(245,236,255)"></path><path d="M 467.209 31.314 L 464.745 41.097 L 459.113 42.109 L 462.281 32.326 Z" fill="rgb(236,220,255)"></path><path d="M 472.928 31.361 L 472.928 16.692 L 471.168 16.692 L 471.168 31.361 Z" fill="rgb(230,209,255)"></path><path d="M 490.598 160.852 L 490.598 69.996 L 485.201 69.996 L 485.201 160.852 Z" fill="rgb(231,208,255)"></path><path d="M 484.301 59.201 L 484.301 52.004 L 480.703 52.004 L 480.703 59.201 Z" fill="rgb(230,209,255)"></path><path d="M 481.602 49.306 L 481.602 42.109 L 478.903 42.109 L 478.903 49.306 Z" fill="rgb(230,209,255)"></path><path d="M 479.803 160.852 L 479.803 69.996 L 474.406 69.996 L 474.406 160.852 Z" fill="rgb(231,208,255)"></path><path d="M 477.105 59.201 L 477.105 52.004 L 473.507 52.004 L 473.507 59.201 Z" fill="rgb(230,209,255)"></path><path d="M 476.205 49.306 L 476.205 42.109 L 473.506 42.109 L 473.506 49.306 Z" fill="rgb(230,209,255)"></path><path d="M 469.009 160.852 L 469.009 69.996 L 463.612 69.996 L 463.612 160.852 Z" fill="rgb(231,208,255)"></path><path d="M 469.908 59.201 L 469.908 52.004 L 466.31 52.004 L 466.31 59.201 Z" fill="rgb(230,209,255)"></path><path d="M 470.808 49.306 L 470.808 42.109 L 468.109 42.109 L 468.109 49.306 Z" fill="rgb(230,209,255)"></path><path d="M 271.199 140.72 L 413.034 140.72 L 413.034 168.465 L 367.96 168.465 L 367.96 156.44 C 367.96 151.129 363.655 146.824 358.344 146.824 C 353.033 146.824 348.728 151.129 348.728 156.44 L 348.728 168.465 L 301.851 168.465 L 301.851 156.44 C 301.851 151.129 297.545 146.824 292.234 146.824 C 286.924 146.824 282.618 151.129 282.618 156.44 L 282.618 168.465 L 271.199 168.465 Z M 325.289 146.823 C 319.978 146.823 315.673 151.128 315.673 156.439 L 315.673 168.465 L 334.905 168.465 L 334.905 156.439 C 334.905 151.128 330.6 146.823 325.289 146.823 Z M 391.398 146.823 C 386.088 146.823 381.782 151.128 381.782 156.439 L 381.782 168.465 L 401.015 168.465 L 401.015 156.439 C 401.015 151.128 396.709 146.823 391.398 146.823 Z" fill="rgb(230,209,255)"></path><path d="M 265.215 141.178 L 265.215 136.98 L 416.012 136.98 L 416.012 141.178 Z" fill="rgb(214,174,255)"></path><path d="M 559.956 168.07 L 559.956 114.096 L 523.074 114.096 L 523.074 168.07 Z" fill="rgb(245,236,255)"></path><path d="M 523.074 114.096 L 510.48 115.871 L 510.48 168.07 L 523.074 168.07 Z" fill="rgb(240,225,255)"></path><path d="M 529.256 129.233 L 529.256 121.137 L 538.252 121.137 L 538.252 129.233 Z" fill="rgb(230,209,255)"></path><path d="M 529.256 140.968 L 529.256 132.872 L 538.252 132.872 L 538.252 140.968 Z" fill="rgb(230,209,255)"></path><path d="M 544.512 129.233 L 544.512 121.137 L 553.508 121.137 L 553.508 129.233 Z" fill="rgb(230,209,255)"></path><path d="M 544.663 141.083 L 544.663 132.987 L 553.659 132.987 L 553.659 141.083 Z" fill="rgb(230,209,255)"></path><path d="M 536.567 157.275 C 536.567 153.797 539.386 150.978 542.864 150.978 L 542.864 150.978 C 546.342 150.978 549.161 153.797 549.161 157.275 L 549.161 168.07 L 536.567 168.07 Z" fill="rgb(230,209,255)"></path><path d="M 567.685 19.348 C 607.537 29.921 609.276 122.027 604.871 167.776 L 567.685 167.776 Z" fill="rgb(245,236,255)"></path><path d="M 558.335 33.581 L 567.993 19.348 L 567.993 167.776 L 558.335 167.776 Z" fill="rgb(236,220,255)"></path><path d="M 584.26 64.974 L 584.26 161.676 L 575.11 161.676 L 575.11 43.747 C 580.95 49.263 584.26 56.941 584.26 64.974 Z" fill="rgb(231,208,255)"></path><path d="M 598.492 106.241 L 598.492 161.675 L 589.343 161.675 L 589.343 76.278 L 590.449 78.058 C 595.706 86.519 598.492 96.281 598.492 106.241 Z" fill="rgb(231,208,255)"></path><path d="M 37.438 171.012 L 37.438 89.453 L 9.805 89.453 L 9.805 171.012 Z" fill="rgb(245,236,255)"></path><path d="M 9.805 89.453 L 0 92.136 L 0 171.013 L 9.805 171.013 Z" fill="rgb(240,225,255)"></path><path d="M 15.153 103.269 L 15.153 97.029 L 21.838 97.029 L 21.838 103.269 Z" fill="rgb(240,225,255)"></path><path d="M 15.153 113.965 L 15.153 107.726 L 21.838 107.726 L 21.838 113.965 Z" fill="rgb(240,225,255)"></path><path d="M 15.153 124.662 L 15.153 118.422 L 21.838 118.422 L 21.838 124.662 Z" fill="rgb(240,225,255)"></path><path d="M 15.153 135.359 L 15.153 129.119 L 21.838 129.119 L 21.838 135.359 Z" fill="rgb(240,225,255)"></path><path d="M 15.153 146.054 L 15.153 139.814 L 21.838 139.814 L 21.838 146.054 Z" fill="rgb(240,225,255)"></path><path d="M 15.153 156.751 L 15.153 150.511 L 21.838 150.511 L 21.838 156.751 Z" fill="rgb(240,225,255)"></path><path d="M 15.153 167.447 L 15.153 161.207 L 21.838 161.207 L 21.838 167.447 Z" fill="rgb(240,225,255)"></path><path d="M 25.849 103.269 L 25.849 97.029 L 32.535 97.029 L 32.535 103.269 Z" fill="rgb(240,225,255)"></path><path d="M 25.849 113.965 L 25.849 107.726 L 32.535 107.726 L 32.535 113.965 Z" fill="rgb(240,225,255)"></path><path d="M 25.849 124.662 L 25.849 118.422 L 32.535 118.422 L 32.535 124.662 Z" fill="rgb(240,225,255)"></path><path d="M 25.849 135.359 L 25.849 129.119 L 32.535 129.119 L 32.535 135.359 Z" fill="rgb(240,225,255)"></path><path d="M 25.849 146.054 L 25.849 139.814 L 32.535 139.814 L 32.535 146.054 Z" fill="rgb(240,225,255)"></path><path d="M 25.849 156.751 L 25.849 150.511 L 32.535 150.511 L 32.535 156.751 Z" fill="rgb(240,225,255)"></path><path d="M 25.849 167.447 L 25.849 161.207 L 32.535 161.207 L 32.535 167.447 Z" fill="rgb(240,225,255)"></path><path d="M 385.5 91.799 L 385.5 84.758 L 416.011 84.758 L 416.011 91.799 Z" fill="rgb(240,225,255)"></path><path d="M 385.5 103.535 L 385.5 96.494 L 416.011 96.494 L 416.011 103.535 Z" fill="rgb(240,225,255)"></path><path d="M 385.5 115.269 L 385.5 108.228 L 416.011 108.228 L 416.011 115.269 Z" fill="rgb(240,225,255)"></path><path d="M 428.334 139.327 L 428.334 119.964 L 443.003 119.964 L 443.003 139.327 Z" fill="rgb(240,225,255)"></path><path d="M 428.334 161.037 L 428.334 141.674 L 443.003 141.674 L 443.003 161.037 Z" fill="rgb(240,225,255)"></path><path d="M 203.428 110.584 L 238.907 109.401 L 211.47 118.862 L 180.722 118.862 Z" fill="rgb(230,209,255)"></path><path d="M 211.47 170.423 L 211.47 124.065 L 219.039 124.065 L 219.039 170.423 Z" fill="rgb(231,208,255)"></path><path d="M 227.081 170.423 L 227.081 124.065 L 234.65 124.065 L 234.65 170.423 Z" fill="rgb(231,208,255)"></path><path d="M 241.272 170.423 L 241.272 124.065 L 249.314 124.065 L 249.314 170.423 Z" fill="rgb(231,208,255)"></path><path d="M 256.409 170.423 L 256.409 124.065 L 264.924 124.065 L 264.924 170.423 Z" fill="rgb(231,208,255)"></path><path d="M 266.816 126.432 L 266.816 118.863 L 238.907 109.639 L 211.233 118.863 L 211.233 126.432 Z" fill="rgb(240,225,255)"></path><path d="M 190.42 126.668 L 190.42 118.626 L 211.234 118.626 L 211.234 126.668 Z" fill="rgb(235,218,255)"></path><path d="M 186.871 170.424 L 186.871 126.431 L 211.469 126.431 L 211.469 170.424 Z" fill="rgb(240,225,255)"></path><path d="M 208.632 170.425 L 208.632 161.91 L 270.128 161.91 L 270.128 170.425 Z" fill="rgb(245,236,255)"></path><path d="M 153.333 167.483 L 153.333 113.509 L 116.451 113.509 L 116.451 167.483 Z" fill="rgb(245,236,255)"></path><path d="M 116.451 113.509 L 103.857 115.284 L 103.857 167.483 L 116.451 167.483 Z" fill="rgb(240,225,255)"></path><path d="M 122.633 128.646 L 122.633 120.55 L 131.629 120.55 L 131.629 128.646 Z" fill="rgb(230,209,255)"></path><path d="M 122.633 140.381 L 122.633 132.285 L 131.629 132.285 L 131.629 140.381 Z" fill="rgb(230,209,255)"></path><path d="M 137.888 128.646 L 137.888 120.55 L 146.884 120.55 L 146.884 128.646 Z" fill="rgb(230,209,255)"></path><path d="M 138.04 140.496 L 138.04 132.4 L 147.036 132.4 L 147.036 140.496 Z" fill="rgb(230,209,255)"></path><path d="M 129.944 156.689 C 129.944 153.211 132.763 150.392 136.241 150.392 L 136.241 150.392 C 139.719 150.392 142.538 153.211 142.538 156.689 L 142.538 167.484 L 129.944 167.484 Z" fill="rgb(230,209,255)"></path><path d="M 199.498 168.665 L 199.498 65.395 L 162.532 65.395 L 162.532 168.665 Z" fill="rgb(245,236,255)"></path><path d="M 819.115 167.49 L 819.115 94.732 L 782.149 94.732 L 782.149 167.49 Z" fill="rgb(245,236,255)"></path><path d="M 162.532 65.395 L 149.624 68.792 L 149.624 168.665 L 162.532 168.665 Z" fill="rgb(240,225,255)"></path><path d="M 782.149 94.732 L 769.24 97.126 L 769.24 167.49 L 782.149 167.49 Z" fill="rgb(240,225,255)"></path><path d="M 169.574 76.543 L 178.962 76.543 L 178.962 156.342 L 169.574 156.342 Z" fill="rgb(240,225,255)"></path><path d="M 789.777 100.601 L 799.165 100.601 L 799.165 163.97 L 789.777 163.97 Z" fill="rgb(240,225,255)"></path><path d="M 183.069 76.543 L 192.457 76.543 L 192.457 156.342 L 183.069 156.342 Z" fill="rgb(240,225,255)"></path><path d="M 803.273 100.601 L 812.661 100.601 L 812.661 163.97 L 803.273 163.97 Z" fill="rgb(240,225,255)"></path><path d="M 42.165 168.071 L 42.165 142.932 L 46.602 142.932 L 46.602 168.071 Z" fill="rgb(214,174,255)"></path><path d="M 34.032 133.689 C 34.032 122.868 38.501 114.096 44.014 114.096 C 49.526 114.096 53.995 122.868 53.995 133.689 C 53.995 144.51 49.526 153.282 44.014 153.282 C 38.501 153.282 34.032 144.51 34.032 133.689 Z" fill="rgb(230,209,255)"></path><path d="M 44.013 152.913 L 44.013 114.466" fill="transparent" stroke-width="0.482267" stroke="rgb(221,199,248)" stroke-miterlimit="10" stroke-dasharray=""></path><path d="M 44.383 125.926 L 50.668 119.641 M 44.383 133.689 L 41.425 131.205 M 35.141 125.926 L 38.468 128.721 M 38.468 128.721 L 38.468 117.793 M 38.468 128.721 L 41.426 131.205 M 41.425 131.205 L 36.989 135.168 M 44.383 142.932 L 50.668 138.865 L 50.668 134.614 M 53.255 127.774 L 50.668 130.362 L 50.668 134.614 M 50.668 134.614 L 54.365 133.689 M 44.383 148.477 L 38.468 143.981 M 35.141 141.453 L 38.468 143.981 M 38.468 143.981 L 38.468 137.756" fill="transparent" stroke-width="0.482267" stroke="rgb(221,199,248)" stroke-miterlimit="10" stroke-dasharray=""></path><path d="M 673.599 75.956 C 668.181 93.95 647.218 129.938 606.708 129.938" fill="transparent" stroke-width="1.17352" stroke="rgb(240,225,255)" stroke-miterlimit="10" stroke-dasharray=""></path><path d="M 687.975 82.411 C 689.539 90.43 701.763 112.336 725.234 124.364" fill="transparent" stroke-width="1.17352" stroke="rgb(240,225,255)" stroke-miterlimit="10" stroke-dasharray=""></path><path d="M 669.491 167.491 L 669.491 72.437 L 689.441 72.437 L 689.441 167.491 Z" fill="rgb(236,220,255)"></path><path d="M 725.82 142.261 L 606.708 142.261 L 606.708 148.128 L 725.82 148.128 Z" fill="rgb(214,174,255)"></path><path d="M 757.391 167.49 L 757.391 75.956 L 726.379 75.956 L 726.379 167.49 Z" fill="rgb(245,236,255)"></path><path d="M 726.379 75.956 L 715.375 78.967 L 715.375 167.49 L 726.379 167.49 Z" fill="rgb(240,225,255)"></path><path d="M 732.382 91.463 L 732.382 84.46 L 739.885 84.46 L 739.885 91.463 Z" fill="rgb(240,225,255)"></path><path d="M 732.382 103.467 L 732.382 96.464 L 739.885 96.464 L 739.885 103.467 Z" fill="rgb(240,225,255)"></path><path d="M 732.382 115.471 L 732.382 108.469 L 739.885 108.469 L 739.885 115.471 Z" fill="rgb(240,225,255)"></path><path d="M 732.382 127.476 L 732.382 120.473 L 739.885 120.473 L 739.885 127.476 Z" fill="rgb(240,225,255)"></path><path d="M 732.382 139.481 L 732.382 132.478 L 739.885 132.478 L 739.885 139.481 Z" fill="rgb(240,225,255)"></path><path d="M 732.382 151.485 L 732.382 144.482 L 739.885 144.482 L 739.885 151.485 Z" fill="rgb(240,225,255)"></path><path d="M 732.382 163.489 L 732.382 156.486 L 739.885 156.486 L 739.885 163.489 Z" fill="rgb(240,225,255)"></path><path d="M 744.386 91.463 L 744.386 84.46 L 751.889 84.46 L 751.889 91.463 Z" fill="rgb(240,225,255)"></path><path d="M 744.386 103.467 L 744.386 96.464 L 751.889 96.464 L 751.889 103.467 Z" fill="rgb(240,225,255)"></path><path d="M 744.386 115.471 L 744.386 108.469 L 751.889 108.469 L 751.889 115.471 Z" fill="rgb(240,225,255)"></path><path d="M 744.386 127.476 L 744.386 120.473 L 751.889 120.473 L 751.889 127.476 Z" fill="rgb(240,225,255)"></path><path d="M 744.386 139.481 L 744.386 132.478 L 751.889 132.478 L 751.889 139.481 Z" fill="rgb(240,225,255)"></path><path d="M 744.386 151.485 L 744.386 144.482 L 751.889 144.482 L 751.889 151.485 Z" fill="rgb(240,225,255)"></path><path d="M 744.386 163.489 L 744.386 156.486 L 751.889 156.486 L 751.889 163.489 Z" fill="rgb(240,225,255)"></path><path d="M 760.942 168.11 L 760.942 148.418 L 764.417 148.418 L 764.417 168.11 Z" fill="rgb(214,174,255)"></path><path d="M 754.571 141.178 C 754.571 132.701 758.072 125.83 762.39 125.83 C 766.708 125.83 770.209 132.701 770.209 141.178 C 770.209 149.655 766.708 156.526 762.39 156.526 C 758.072 156.526 754.571 149.655 754.571 141.178 Z" fill="rgb(230,209,255)"></path><path d="M 762.391 156.237 L 762.391 126.12" fill="transparent" stroke-width="0.586759" stroke="rgb(221,199,248)" stroke-miterlimit="10" stroke-dasharray=""></path><path d="M 762.68 135.097 L 767.603 130.174 M 762.68 141.178 L 760.363 139.232 M 755.44 135.097 L 758.047 137.286 M 758.047 137.286 L 758.047 128.726 M 758.047 137.286 L 760.363 139.232 M 760.363 139.232 L 756.888 142.336 M 762.68 148.418 L 767.603 145.232 L 767.603 141.902 M 769.63 136.545 L 767.603 138.572 L 767.603 141.902 M 767.603 141.902 L 770.499 141.178 M 762.68 152.762 L 758.047 149.24 M 755.44 147.26 L 758.047 149.24 M 758.047 149.24 L 758.047 144.364" fill="transparent" stroke-width="0.586759" stroke="rgb(221,199,248)" stroke-miterlimit="10" stroke-dasharray=""></path><g transform="translate(107.377 138.74)"><g><defs><linearGradient id="idss9521166825_123g-208772696" x1="0.49751243781094523" x2="0.5024875621890548" y1="0" y2="1"><stop offset="0" stop-color="rgb(217,217,217)" stop-opacity="1"></stop><stop offset="1" stop-color="rgba(217,217,217,0)" stop-opacity="0"></stop></linearGradient></defs><path d="M 0 7.041 L 3.521 0 L 5.868 0 L 2.347 7.041 Z" fill="url(#idss9521166825_123g-208772696)"></path></g></g><path d="M 1561.61 137.287 L 1495.19 182.159 L 1654.21 182.159 L 1590.17 137.499 C 1581.61 131.529 1570.26 131.445 1561.61 137.287 Z" fill="rgb(204, 177, 240)"></path><path d="M 879.366 145.413 L 843.892 169.251 L 941.881 169.251 L 907.818 145.624 C 899.282 139.703 887.989 139.619 879.366 145.413 Z" fill="rgb(245,236,255)"></path><path d="M 1421.96 137.287 L 1355.54 182.159 L 1514.56 182.159 L 1450.52 137.499 C 1441.96 131.529 1430.61 131.445 1421.96 137.287 Z" fill="rgb(229, 209, 255)"></path><path d="M 1344.73 141.728 L 1292.76 176.292 L 1423.02 176.292 L 1372.98 141.936 C 1364.49 136.105 1353.31 136.023 1344.73 141.728 Z" fill="rgb(230,209,255)"></path><path d="M 1086.93 95.748 C 1046.23 127.142 988.929 156.956 943.054 168.665 L 1332.07 168.665 C 1229.54 168.665 1188.41 131.748 1152.53 97.41 C 1143.6 88.872 1131.74 84.172 1119.39 84.172 C 1107.59 84.172 1096.27 88.541 1086.93 95.748 Z" fill="rgb(247,240,255)"></path><path d="M 1045.145 43.978 C 1045.145 26.317 1059.331 12 1076.83 12 C 1094.329 12 1108.515 26.317 1108.515 43.978 C 1108.515 61.639 1094.329 75.957 1076.83 75.957 C 1059.331 75.957 1045.145 61.639 1045.145 43.978 Z" fill="rgb(245,236,255)"></path><path d="M 1448.25 130.232 L 1448.25 142.26 M 1459.4 128.765 L 1459.4 142.26 M 1469.08 125.538 L 1469.08 142.26 M 1480.23 119.67 L 1480.23 142.26 M 1490.79 110.575 L 1490.79 142.26 M 1500.77 99.427 L 1500.77 142.26" fill="transparent" stroke-width="1.17352" stroke="rgb(240,225,255)" stroke-miterlimit="10" stroke-dasharray=""></path><path d="M 1588.19 130.818 L 1588.19 142.847 M 1577.05 129.352 L 1577.05 142.847 M 1567.36 126.124 L 1567.36 142.847 M 1556.22 120.257 L 1556.22 142.847 M 1545.65 111.162 L 1545.65 142.847 M 1535.68 100.014 L 1535.68 142.847" fill="transparent" stroke-width="1.17352" stroke="rgb(240,225,255)" stroke-miterlimit="10" stroke-dasharray=""></path><path d="M 1179.08 49.742 L 1173.14 167.585 L 1188.43 167.585 L 1182.43 49.742 Z" fill="rgb(236,220,255)"></path><path d="M 1180.34 13.76 L 1180.34 30.852 L 1182.14 30.852 L 1182.14 13.76 Z" fill="rgb(230,209,255)"></path><path d="M 1169.54 41.647 L 1192.93 41.647 L 1192.93 41.647 C 1192.93 46.615 1188.9 50.642 1183.94 50.642 L 1178.54 50.642 C 1173.57 50.642 1169.54 46.615 1169.54 41.647 Z" fill="rgb(231,208,255)"></path><path d="M 1192.93 40.746 L 1169.71 40.746 C 1168.88 36.97 1170.86 29.052 1181.14 29.052 C 1191.43 29.052 1192.93 36.97 1192.93 40.746 Z" fill="rgb(231,208,255)"></path><path d="M 1299.8 168.665 L 1299.8 114.683 L 1263.421 114.683 L 1263.421 168.665 Z" fill="rgb(245,236,255)"></path><path d="M 1257.56 168.664 L 1257.56 77.13 L 1220.594 77.13 L 1220.594 168.664 Z" fill="rgb(245,236,255)"></path><path d="M 1263.42 114.683 L 1250.52 116.458 L 1250.52 168.664 L 1263.42 168.664 Z" fill="rgb(240,225,255)"></path><path d="M 1220.59 77.13 L 1207.68 80.141 L 1207.68 168.664 L 1220.59 168.664 Z" fill="rgb(240,225,255)"></path><path d="M 1323.81 52.905 L 1323.81 41.21 L 1302.22 41.21 L 1302.22 52.905 Z" fill="rgb(245,236,255)"></path><path d="M 1302.22 41.21 L 1295.02 42.881 L 1295.02 52.905 L 1302.22 52.905 Z" fill="rgb(236,220,255)"></path><path d="M 1328.31 65.498 L 1328.31 50.205 L 1300.423 50.205 L 1300.423 65.498 Z" fill="rgb(245,236,255)"></path><path d="M 1300.42 50.205 L 1290.53 52.39 L 1290.53 65.498 L 1300.42 65.498 Z" fill="rgb(236,220,255)"></path><path d="M 1334.61 168.949 L 1334.61 60.102 L 1297.728 60.102 L 1297.728 168.949 Z" fill="rgb(245,236,255)"></path><path d="M 1297.72 60.102 L 1285.13 63.682 L 1285.13 168.949 L 1297.72 168.949 Z" fill="rgb(236,220,255)"></path><path d="M 1317.61 31.314 L 1320.21 42.109 L 1303.12 42.109 L 1305.72 31.314 Z" fill="rgb(245,236,255)"></path><path d="M 1305.82 31.314 L 1303.36 41.097 L 1297.72 42.109 L 1300.89 32.326 Z" fill="rgb(236,220,255)"></path><path d="M 1311.54 31.361 L 1311.54 16.692 L 1309.78 16.692 L 1309.78 31.361 Z" fill="rgb(230,209,255)"></path><path d="M 1329.21 160.852 L 1329.21 69.996 L 1323.813 69.996 L 1323.813 160.852 Z" fill="rgb(231,208,255)"></path><path d="M 1322.91 59.201 L 1322.91 52.004 L 1319.312 52.004 L 1319.312 59.201 Z" fill="rgb(230,209,255)"></path><path d="M 1320.21 49.306 L 1320.21 42.109 L 1317.511 42.109 L 1317.511 49.306 Z" fill="rgb(230,209,255)"></path><path d="M 1318.41 160.852 L 1318.41 69.996 L 1313.013 69.996 L 1313.013 160.852 Z" fill="rgb(231,208,255)"></path><path d="M 1315.72 59.201 L 1315.72 52.004 L 1312.122 52.004 L 1312.122 59.201 Z" fill="rgb(230,209,255)"></path><path d="M 1314.82 49.306 L 1314.82 42.109 L 1312.121 42.109 L 1312.121 49.306 Z" fill="rgb(230,209,255)"></path><path d="M 1307.62 160.852 L 1307.62 69.996 L 1302.223 69.996 L 1302.223 160.852 Z" fill="rgb(231,208,255)"></path><path d="M 1308.52 59.201 L 1308.52 52.004 L 1304.922 52.004 L 1304.922 59.201 Z" fill="rgb(230,209,255)"></path><path d="M 1309.42 49.306 L 1309.42 42.109 L 1306.721 42.109 L 1306.721 49.306 Z" fill="rgb(230,209,255)"></path><path d="M 1109.81 140.72 L 1251.64 140.72 L 1251.64 168.465 L 1206.57 168.465 L 1206.57 156.44 C 1206.57 151.129 1202.27 146.824 1196.95 146.824 C 1191.64 146.824 1187.34 151.129 1187.34 156.44 L 1187.34 168.465 L 1140.46 168.465 L 1140.46 156.44 C 1140.46 151.129 1136.16 146.824 1130.85 146.824 C 1125.53 146.824 1121.23 151.129 1121.23 156.44 L 1121.23 168.465 L 1109.81 168.465 Z M 1163.9 146.823 C 1158.59 146.823 1154.28 151.128 1154.28 156.439 L 1154.28 168.465 L 1173.52 168.465 L 1173.52 156.439 C 1173.52 151.128 1169.21 146.823 1163.9 146.823 Z M 1230.01 146.823 C 1224.7 146.823 1220.39 151.128 1220.39 156.439 L 1220.39 168.465 L 1239.63 168.465 L 1239.63 156.439 C 1239.63 151.128 1235.32 146.823 1230.01 146.823 Z" fill="rgb(230,209,255)"></path><path d="M 1103.83 141.178 L 1103.83 136.98 L 1254.627 136.98 L 1254.627 141.178 Z" fill="rgb(214,174,255)"></path><path d="M 1398.57 168.07 L 1398.57 114.096 L 1361.688 114.096 L 1361.688 168.07 Z" fill="rgb(245,236,255)"></path><path d="M 1361.68 114.096 L 1349.09 115.871 L 1349.09 168.07 L 1361.68 168.07 Z" fill="rgb(240,225,255)"></path><path d="M 1367.87 129.233 L 1367.87 121.137 L 1376.866 121.137 L 1376.866 129.233 Z" fill="rgb(230,209,255)"></path><path d="M 1367.87 140.968 L 1367.87 132.872 L 1376.866 132.872 L 1376.866 140.968 Z" fill="rgb(230,209,255)"></path><path d="M 1383.12 129.233 L 1383.12 121.137 L 1392.116 121.137 L 1392.116 129.233 Z" fill="rgb(230,209,255)"></path><path d="M 1383.27 141.083 L 1383.27 132.987 L 1392.266 132.987 L 1392.266 141.083 Z" fill="rgb(230,209,255)"></path><path d="M 1375.18 157.275 C 1375.18 153.797 1378 150.978 1381.47 150.978 L 1381.47 150.978 C 1384.95 150.978 1387.77 153.797 1387.77 157.275 L 1387.77 168.07 L 1375.18 168.07 Z" fill="rgb(230,209,255)"></path><path d="M 905.178 21.661 C 945.03 32.234 946.769 124.341 942.363 170.089 L 905.178 170.089 Z" fill="rgb(245,236,255)"></path><path d="M 895.828 35.894 L 905.486 21.661 L 905.486 170.089 L 895.828 170.089 Z" fill="rgb(236,220,255)"></path><path d="M 921.752 67.287 L 921.752 163.99 L 912.603 163.99 L 912.603 46.06 C 918.443 51.576 921.752 59.254 921.752 67.287 Z" fill="rgb(231,208,255)"></path><path d="M 935.985 108.555 L 935.985 163.989 L 926.835 163.989 L 926.835 78.592 L 927.941 80.372 C 933.198 88.832 935.985 98.594 935.985 108.555 Z" fill="rgb(231,208,255)"></path><path d="M 876.048 171.012 L 876.048 89.453 L 848.416 89.453 L 848.416 171.012 Z" fill="rgb(245,236,255)"></path><path d="M 848.416 89.453 L 838.611 92.136 L 838.611 171.013 L 848.416 171.013 Z" fill="rgb(240,225,255)"></path><path d="M 853.764 103.269 L 853.764 97.029 L 860.449 97.029 L 860.449 103.269 Z" fill="rgb(240,225,255)"></path><path d="M 853.764 113.965 L 853.764 107.726 L 860.449 107.726 L 860.449 113.965 Z" fill="rgb(240,225,255)"></path><path d="M 853.764 124.662 L 853.764 118.422 L 860.449 118.422 L 860.449 124.662 Z" fill="rgb(240,225,255)"></path><path d="M 853.764 135.359 L 853.764 129.119 L 860.449 129.119 L 860.449 135.359 Z" fill="rgb(240,225,255)"></path><path d="M 853.764 146.054 L 853.764 139.814 L 860.449 139.814 L 860.449 146.054 Z" fill="rgb(240,225,255)"></path><path d="M 853.764 156.751 L 853.764 150.511 L 860.449 150.511 L 860.449 156.751 Z" fill="rgb(240,225,255)"></path><path d="M 853.764 167.447 L 853.764 161.207 L 860.449 161.207 L 860.449 167.447 Z" fill="rgb(240,225,255)"></path><path d="M 864.46 103.269 L 864.46 97.029 L 871.145 97.029 L 871.145 103.269 Z" fill="rgb(240,225,255)"></path><path d="M 864.46 113.965 L 864.46 107.726 L 871.145 107.726 L 871.145 113.965 Z" fill="rgb(240,225,255)"></path><path d="M 864.46 124.662 L 864.46 118.422 L 871.145 118.422 L 871.145 124.662 Z" fill="rgb(240,225,255)"></path><path d="M 864.46 135.359 L 864.46 129.119 L 871.145 129.119 L 871.145 135.359 Z" fill="rgb(240,225,255)"></path><path d="M 864.46 146.054 L 864.46 139.814 L 871.145 139.814 L 871.145 146.054 Z" fill="rgb(240,225,255)"></path><path d="M 864.46 156.751 L 864.46 150.511 L 871.145 150.511 L 871.145 156.751 Z" fill="rgb(240,225,255)"></path><path d="M 864.46 167.447 L 864.46 161.207 L 871.145 161.207 L 871.145 167.447 Z" fill="rgb(240,225,255)"></path><path d="M 1224.11 91.799 L 1224.11 84.758 L 1254.621 84.758 L 1254.621 91.799 Z" fill="rgb(240,225,255)"></path><path d="M 1224.11 103.535 L 1224.11 96.494 L 1254.621 96.494 L 1254.621 103.535 Z" fill="rgb(240,225,255)"></path><path d="M 1224.11 115.269 L 1224.11 108.228 L 1254.621 108.228 L 1254.621 115.269 Z" fill="rgb(240,225,255)"></path><path d="M 1266.94 139.327 L 1266.94 119.964 L 1281.609 119.964 L 1281.609 139.327 Z" fill="rgb(240,225,255)"></path><path d="M 1266.94 161.037 L 1266.94 141.674 L 1281.609 141.674 L 1281.609 161.037 Z" fill="rgb(240,225,255)"></path><path d="M 1042.04 110.584 L 1077.52 109.401 L 1050.08 118.862 L 1019.33 118.862 Z" fill="rgb(230,209,255)"></path><path d="M 1050.08 170.423 L 1050.08 124.065 L 1057.649 124.065 L 1057.649 170.423 Z" fill="rgb(231,208,255)"></path><path d="M 1065.69 170.423 L 1065.69 124.065 L 1073.259 124.065 L 1073.259 170.423 Z" fill="rgb(231,208,255)"></path><path d="M 1079.88 170.423 L 1079.88 124.065 L 1087.922 124.065 L 1087.922 170.423 Z" fill="rgb(231,208,255)"></path><path d="M 1095.02 170.423 L 1095.02 124.065 L 1103.535 124.065 L 1103.535 170.423 Z" fill="rgb(231,208,255)"></path><path d="M 1105.43 126.432 L 1105.43 118.863 L 1077.52 109.639 L 1049.84 118.863 L 1049.84 126.432 Z" fill="rgb(240,225,255)"></path><path d="M 1029.03 126.668 L 1029.03 118.626 L 1049.844 118.626 L 1049.844 126.668 Z" fill="rgb(235,218,255)"></path><path d="M 1025.48 170.424 L 1025.48 126.431 L 1050.078 126.431 L 1050.078 170.424 Z" fill="rgb(240,225,255)"></path><path d="M 1047.24 170.425 L 1047.24 161.91 L 1108.736 161.91 L 1108.736 170.425 Z" fill="rgb(245,236,255)"></path><path d="M 991.943 167.483 L 991.943 113.509 L 955.061 113.509 L 955.061 167.483 Z" fill="rgb(245,236,255)"></path><path d="M 955.062 113.509 L 942.468 115.284 L 942.468 167.483 L 955.062 167.483 Z" fill="rgb(240,225,255)"></path><path d="M 961.244 128.646 L 961.244 120.55 L 970.24 120.55 L 970.24 128.646 Z" fill="rgb(230,209,255)"></path><path d="M 961.243 140.381 L 961.243 132.285 L 970.239 132.285 L 970.239 140.381 Z" fill="rgb(230,209,255)"></path><path d="M 976.499 128.646 L 976.499 120.55 L 985.495 120.55 L 985.495 128.646 Z" fill="rgb(230,209,255)"></path><path d="M 976.65 140.496 L 976.65 132.4 L 985.646 132.4 L 985.646 140.496 Z" fill="rgb(230,209,255)"></path><path d="M 968.554 156.689 C 968.554 153.211 971.374 150.392 974.851 150.392 L 974.851 150.392 C 978.329 150.392 981.148 153.211 981.148 156.689 L 981.148 167.484 L 968.554 167.484 Z" fill="rgb(230,209,255)"></path><path d="M 1038.11 168.665 L 1038.11 65.395 L 1001.144 65.395 L 1001.144 168.665 Z" fill="rgb(245,236,255)"></path><path d="M 1657.73 167.49 L 1657.73 94.732 L 1620.764 94.732 L 1620.764 167.49 Z" fill="rgb(245,236,255)"></path><path d="M 1001.14 65.395 L 988.234 68.792 L 988.234 168.665 L 1001.14 168.665 Z" fill="rgb(240,225,255)"></path><path d="M 1620.76 94.732 L 1607.85 97.126 L 1607.85 167.49 L 1620.76 167.49 Z" fill="rgb(240,225,255)"></path><path d="M 1008.182 76.543 L 1017.57 76.543 L 1017.57 156.342 L 1008.182 156.342 Z" fill="rgb(240,225,255)"></path><path d="M 1628.392 100.601 L 1637.78 100.601 L 1637.78 163.971 L 1628.392 163.971 Z" fill="rgb(240,225,255)"></path><path d="M 1021.682 76.543 L 1031.07 76.543 L 1031.07 156.342 L 1021.682 156.342 Z" fill="rgb(240,225,255)"></path><path d="M 1641.882 100.601 L 1651.27 100.601 L 1651.27 163.971 L 1641.882 163.971 Z" fill="rgb(240,225,255)"></path><path d="M 880.776 168.071 L 880.776 142.932 L 885.212 142.932 L 885.212 168.071 Z" fill="rgb(214,174,255)"></path><path d="M 872.643 133.689 C 872.643 122.868 877.111 114.096 882.624 114.096 C 888.137 114.096 892.605 122.868 892.605 133.689 C 892.605 144.51 888.137 153.282 882.624 153.282 C 877.111 153.282 872.643 144.51 872.643 133.689 Z" fill="rgb(230,209,255)"></path><path d="M 882.624 152.913 L 882.624 114.466" fill="transparent" stroke-width="0.482267" stroke="rgb(221,199,248)" stroke-miterlimit="10" stroke-dasharray=""></path><path d="M 882.994 125.926 L 889.278 119.641 M 882.994 133.689 L 880.036 131.205 M 873.751 125.926 L 877.079 128.721 M 877.079 128.721 L 877.079 117.793 M 877.079 128.721 L 880.036 131.205 M 880.036 131.205 L 875.6 135.168 M 882.994 142.932 L 889.278 138.865 L 889.278 134.614 M 891.866 127.774 L 889.278 130.362 L 889.278 134.614 M 889.278 134.614 L 892.975 133.689 M 882.994 148.477 L 877.079 143.981 M 873.751 141.453 L 877.079 143.981 M 877.079 143.981 L 877.079 137.756" fill="transparent" stroke-width="0.482267" stroke="rgb(221,199,248)" stroke-miterlimit="10" stroke-dasharray=""></path><path d="M 1512.21 75.956 C 1506.79 93.95 1485.83 129.938 1445.32 129.938" fill="transparent" stroke-width="1.17352" stroke="rgb(240,225,255)" stroke-miterlimit="10" stroke-dasharray=""></path><path d="M 1526.59 82.411 C 1528.15 90.43 1540.37 112.336 1563.84 124.364" fill="transparent" stroke-width="1.17352" stroke="rgb(240,225,255)" stroke-miterlimit="10" stroke-dasharray=""></path><path d="M 1508.1 167.491 L 1508.1 72.437 L 1528.05 72.437 L 1528.05 167.491 Z" fill="rgb(236,220,255)"></path><path d="M 1564.43 142.261 L 1445.32 142.261 L 1445.32 148.128 L 1564.43 148.128 Z" fill="rgb(214,174,255)"></path><path d="M 1596 167.49 L 1596 75.956 L 1564.988 75.956 L 1564.988 167.49 Z" fill="rgb(245,236,255)"></path><path d="M 1564.99 75.956 L 1553.99 78.967 L 1553.99 167.49 L 1564.99 167.49 Z" fill="rgb(240,225,255)"></path><path d="M 1570.99 91.463 L 1570.99 84.46 L 1578.493 84.46 L 1578.493 91.463 Z" fill="rgb(240,225,255)"></path><path d="M 1570.99 103.467 L 1570.99 96.464 L 1578.493 96.464 L 1578.493 103.467 Z" fill="rgb(240,225,255)"></path><path d="M 1570.99 115.471 L 1570.99 108.469 L 1578.493 108.469 L 1578.493 115.471 Z" fill="rgb(240,225,255)"></path><path d="M 1570.99 127.476 L 1570.99 120.473 L 1578.493 120.473 L 1578.493 127.476 Z" fill="rgb(240,225,255)"></path><path d="M 1570.99 139.481 L 1570.99 132.478 L 1578.493 132.478 L 1578.493 139.481 Z" fill="rgb(240,225,255)"></path><path d="M 1570.99 151.485 L 1570.99 144.482 L 1578.493 144.482 L 1578.493 151.485 Z" fill="rgb(240,225,255)"></path><path d="M 1570.99 163.489 L 1570.99 156.486 L 1578.493 156.486 L 1578.493 163.489 Z" fill="rgb(240,225,255)"></path><path d="M 1583 91.463 L 1583 84.46 L 1590.503 84.46 L 1590.503 91.463 Z" fill="rgb(240,225,255)"></path><path d="M 1583 103.467 L 1583 96.464 L 1590.503 96.464 L 1590.503 103.467 Z" fill="rgb(240,225,255)"></path><path d="M 1583 115.471 L 1583 108.469 L 1590.503 108.469 L 1590.503 115.471 Z" fill="rgb(240,225,255)"></path><path d="M 1583 127.476 L 1583 120.473 L 1590.503 120.473 L 1590.503 127.476 Z" fill="rgb(240,225,255)"></path><path d="M 1583 139.481 L 1583 132.478 L 1590.503 132.478 L 1590.503 139.481 Z" fill="rgb(240,225,255)"></path><path d="M 1583 151.485 L 1583 144.482 L 1590.503 144.482 L 1590.503 151.485 Z" fill="rgb(240,225,255)"></path><path d="M 1583 163.489 L 1583 156.486 L 1590.503 156.486 L 1590.503 163.489 Z" fill="rgb(240,225,255)"></path><path d="M 1599.55 168.11 L 1599.55 148.418 L 1603.025 148.418 L 1603.025 168.11 Z" fill="rgb(214,174,255)"></path><path d="M 1593.181 141.178 C 1593.181 132.701 1596.682 125.83 1601 125.83 C 1605.318 125.83 1608.819 132.701 1608.819 141.178 C 1608.819 149.655 1605.318 156.526 1601 156.526 C 1596.682 156.526 1593.181 149.655 1593.181 141.178 Z" fill="rgb(230,209,255)"></path><path d="M 1601 156.237 L 1601 126.12" fill="transparent" stroke-width="0.586759" stroke="rgb(221,199,248)" stroke-miterlimit="10" stroke-dasharray=""></path><path d="M 1601.29 135.097 L 1606.21 130.174 M 1601.29 141.178 L 1598.97 139.232 M 1594.05 135.097 L 1596.66 137.286 M 1596.66 137.286 L 1596.66 128.726 M 1596.66 137.286 L 1598.97 139.232 M 1598.97 139.232 L 1595.5 142.336 M 1601.29 148.418 L 1606.21 145.232 L 1606.21 141.902 M 1608.24 136.545 L 1606.21 138.572 L 1606.21 141.902 M 1606.21 141.902 L 1609.11 141.178 M 1601.29 152.762 L 1596.66 149.24 M 1594.05 147.26 L 1596.66 149.24 M 1596.66 149.24 L 1596.66 144.364" fill="transparent" stroke-width="0.586759" stroke="rgb(221,199,248)" stroke-miterlimit="10" stroke-dasharray=""></path><g transform="translate(945.988 138.74)"><g><defs><linearGradient id="idss9521166825_245g-208772696" x1="0.49751243781094523" x2="0.5024875621890548" y1="0" y2="1"><stop offset="0" stop-color="rgb(217,217,217)" stop-opacity="1"></stop><stop offset="1" stop-color="rgba(217,217,217,0)" stop-opacity="0"></stop></linearGradient></defs><path d="M 0 7.041 L 3.52 0 L 5.867 0 L 2.347 7.041 Z" fill="url(#idss9521166825_245g-208772696)"></path></g></g><path d="M 806.758 149.485 L 757.615 182.644 L 882.595 182.644 L 835.29 149.696 C 826.736 143.739 815.399 143.655 806.758 149.485 Z" fill="rgb(230,209,255)"></path><path d="M 2319.22 137.287 L 2252.81 182.159 L 2411.82 182.159 L 2347.78 137.499 C 2339.22 131.529 2327.87 131.445 2319.22 137.287 Z" fill="rgb(245,236,255)"></path><path d="M 1636.98 145.413 L 1601.51 169.251 L 1699.5 169.251 L 1665.43 145.624 C 1656.9 139.703 1645.6 139.619 1636.98 145.413 Z" fill="rgb(245,236,255)"></path><path d="M 2179.58 137.287 L 2113.16 182.159 L 2272.17 182.159 L 2208.13 137.499 C 2199.57 131.529 2188.22 131.445 2179.58 137.287 Z" fill="rgb(247,240,255)"></path><path d="M 1684.09 144.308 L 1634.95 177.466 L 1759.93 177.466 L 1712.63 144.519 C 1704.07 138.561 1692.74 138.477 1684.09 144.308 Z" fill="rgb(230,209,255)"></path><path d="M 2102.34 141.728 L 2050.38 176.292 L 2180.64 176.292 L 2130.6 141.936 C 2122.11 136.105 2110.92 136.023 2102.34 141.728 Z" fill="rgb(230,209,255)"></path><path d="M 1844.54 95.748 C 1803.84 127.142 1746.54 156.956 1700.67 168.665 L 2089.69 168.665 C 1987.15 168.665 1946.03 131.748 1910.14 97.41 C 1901.22 88.872 1889.35 84.172 1877 84.172 C 1865.2 84.172 1853.89 88.541 1844.54 95.748 Z" fill="rgb(247,240,255)"></path><path d="M 1802.765 43.978 C 1802.765 26.317 1816.951 12 1834.45 12 C 1851.949 12 1866.135 26.317 1866.135 43.978 C 1866.135 61.639 1851.949 75.957 1834.45 75.957 C 1816.951 75.957 1802.765 61.639 1802.765 43.978 Z" fill="rgb(245,236,255)"></path><path d="M 2205.87 130.232 L 2205.87 142.26 M 2217.02 128.765 L 2217.02 142.26 M 2226.7 125.538 L 2226.7 142.26 M 2237.85 119.67 L 2237.85 142.26 M 2248.41 110.575 L 2248.41 142.26 M 2258.38 99.427 L 2258.38 142.26" fill="transparent" stroke-width="1.17352" stroke="rgb(240,225,255)" stroke-miterlimit="10" stroke-dasharray=""></path><path d="M 2345.81 130.818 L 2345.81 142.847 M 2334.66 129.352 L 2334.66 142.847 M 2324.98 126.124 L 2324.98 142.847 M 2313.83 120.257 L 2313.83 142.847 M 2303.27 111.162 L 2303.27 142.847 M 2293.29 100.014 L 2293.29 142.847" fill="transparent" stroke-width="1.17352" stroke="rgb(240,225,255)" stroke-miterlimit="10" stroke-dasharray=""></path><path d="M 1936.7 49.742 L 1930.76 167.585 L 1946.05 167.585 L 1940.05 49.742 Z" fill="rgb(236,220,255)"></path><path d="M 1937.95 13.76 L 1937.95 30.852 L 1939.75 30.852 L 1939.75 13.76 Z" fill="rgb(230,209,255)"></path><path d="M 1927.16 41.647 L 1950.55 41.647 L 1950.55 41.647 C 1950.55 46.615 1946.52 50.642 1941.55 50.642 L 1936.15 50.642 C 1931.19 50.642 1927.16 46.615 1927.16 41.647 Z" fill="rgb(231,208,255)"></path><path d="M 1950.55 40.746 L 1927.33 40.746 C 1926.49 36.97 1928.47 29.052 1938.76 29.052 C 1949.05 29.052 1950.55 36.97 1950.55 40.746 Z" fill="rgb(231,208,255)"></path><path d="M 2057.42 168.665 L 2057.42 114.683 L 2021.041 114.683 L 2021.041 168.665 Z" fill="rgb(245,236,255)"></path><path d="M 2015.17 168.664 L 2015.17 77.13 L 1978.204 77.13 L 1978.204 168.664 Z" fill="rgb(245,236,255)"></path><path d="M 2021.04 114.683 L 2008.13 116.458 L 2008.13 168.664 L 2021.04 168.664 Z" fill="rgb(240,225,255)"></path><path d="M 1978.21 77.13 L 1965.3 80.141 L 1965.3 168.664 L 1978.21 168.664 Z" fill="rgb(240,225,255)"></path><path d="M 2081.43 52.905 L 2081.43 41.21 L 2059.84 41.21 L 2059.84 52.905 Z" fill="rgb(245,236,255)"></path><path d="M 2059.84 41.21 L 2052.64 42.881 L 2052.64 52.905 L 2059.84 52.905 Z" fill="rgb(236,220,255)"></path><path d="M 2085.92 65.498 L 2085.92 50.205 L 2058.034 50.205 L 2058.034 65.498 Z" fill="rgb(245,236,255)"></path><path d="M 2058.04 50.205 L 2048.14 52.39 L 2048.14 65.498 L 2058.04 65.498 Z" fill="rgb(236,220,255)"></path><path d="M 2092.22 168.949 L 2092.22 60.102 L 2055.338 60.102 L 2055.338 168.949 Z" fill="rgb(245,236,255)"></path><path d="M 2055.34 60.102 L 2042.74 63.682 L 2042.74 168.949 L 2055.34 168.949 Z" fill="rgb(236,220,255)"></path><path d="M 2075.23 31.314 L 2077.83 42.109 L 2060.74 42.109 L 2063.34 31.314 Z" fill="rgb(245,236,255)"></path><path d="M 2063.43 31.314 L 2060.97 41.097 L 2055.34 42.109 L 2058.51 32.326 Z" fill="rgb(236,220,255)"></path><path d="M 2069.15 31.361 L 2069.15 16.692 L 2067.39 16.692 L 2067.39 31.361 Z" fill="rgb(230,209,255)"></path><path d="M 2086.82 160.852 L 2086.82 69.996 L 2081.423 69.996 L 2081.423 160.852 Z" fill="rgb(231,208,255)"></path><path d="M 2080.53 59.201 L 2080.53 52.004 L 2076.932 52.004 L 2076.932 59.201 Z" fill="rgb(230,209,255)"></path><path d="M 2077.83 49.306 L 2077.83 42.109 L 2075.131 42.109 L 2075.131 49.306 Z" fill="rgb(230,209,255)"></path><path d="M 2076.03 160.852 L 2076.03 69.996 L 2070.633 69.996 L 2070.633 160.852 Z" fill="rgb(231,208,255)"></path><path d="M 2073.33 59.201 L 2073.33 52.004 L 2069.732 52.004 L 2069.732 59.201 Z" fill="rgb(230,209,255)"></path><path d="M 2072.43 49.306 L 2072.43 42.109 L 2069.731 42.109 L 2069.731 49.306 Z" fill="rgb(230,209,255)"></path><path d="M 2065.23 160.852 L 2065.23 69.996 L 2059.833 69.996 L 2059.833 160.852 Z" fill="rgb(231,208,255)"></path><path d="M 2066.13 59.201 L 2066.13 52.004 L 2062.532 52.004 L 2062.532 59.201 Z" fill="rgb(230,209,255)"></path><path d="M 2067.03 49.306 L 2067.03 42.109 L 2064.331 42.109 L 2064.331 49.306 Z" fill="rgb(230,209,255)"></path><path d="M 1867.42 140.72 L 2009.26 140.72 L 2009.26 168.465 L 1964.19 168.465 L 1964.19 156.44 C 1964.19 151.129 1959.88 146.824 1954.57 146.824 C 1949.26 146.824 1944.95 151.129 1944.95 156.44 L 1944.95 168.465 L 1898.08 168.465 L 1898.08 156.44 C 1898.08 151.129 1893.77 146.824 1888.46 146.824 C 1883.15 146.824 1878.84 151.129 1878.84 156.44 L 1878.84 168.465 L 1867.42 168.465 Z M 1921.51 146.823 C 1916.2 146.823 1911.9 151.128 1911.9 156.439 L 1911.9 168.465 L 1931.13 168.465 L 1931.13 156.439 C 1931.13 151.128 1926.83 146.823 1921.51 146.823 Z M 1987.62 146.823 C 1982.31 146.823 1978.01 151.128 1978.01 156.439 L 1978.01 168.465 L 1997.24 168.465 L 1997.24 156.439 C 1997.24 151.128 1992.93 146.823 1987.62 146.823 Z" fill="rgb(230,209,255)"></path><path d="M 1861.44 141.178 L 1861.44 136.98 L 2012.237 136.98 L 2012.237 141.178 Z" fill="rgb(214,174,255)"></path><path d="M 2156.18 168.07 L 2156.18 114.096 L 2119.298 114.096 L 2119.298 168.07 Z" fill="rgb(245,236,255)"></path><path d="M 2119.3 114.096 L 2106.71 115.871 L 2106.71 168.07 L 2119.3 168.07 Z" fill="rgb(240,225,255)"></path><path d="M 2125.48 129.233 L 2125.48 121.137 L 2134.476 121.137 L 2134.476 129.233 Z" fill="rgb(230,209,255)"></path><path d="M 2125.48 140.968 L 2125.48 132.872 L 2134.476 132.872 L 2134.476 140.968 Z" fill="rgb(230,209,255)"></path><path d="M 2140.74 129.233 L 2140.74 121.137 L 2149.736 121.137 L 2149.736 129.233 Z" fill="rgb(230,209,255)"></path><path d="M 2140.89 141.083 L 2140.89 132.987 L 2149.886 132.987 L 2149.886 141.083 Z" fill="rgb(230,209,255)"></path><path d="M 2132.79 157.275 C 2132.79 153.797 2135.61 150.978 2139.09 150.978 L 2139.09 150.978 C 2142.57 150.978 2145.39 153.797 2145.39 157.275 L 2145.39 168.07 L 2132.79 168.07 Z" fill="rgb(230,209,255)"></path><path d="M 2163.91 19.348 C 2203.76 29.921 2205.5 122.027 2201.1 167.776 L 2163.91 167.776 Z" fill="rgb(245,236,255)"></path><path d="M 2154.56 33.581 L 2164.22 19.348 L 2164.22 167.776 L 2154.56 167.776 Z" fill="rgb(236,220,255)"></path><path d="M 2180.49 64.974 L 2180.49 161.676 L 2171.34 161.676 L 2171.34 43.747 C 2177.18 49.263 2180.49 56.941 2180.49 64.974 Z" fill="rgb(231,208,255)"></path><path d="M 2194.72 106.241 L 2194.72 161.675 L 2185.57 161.675 L 2185.57 76.278 L 2186.67 78.058 C 2191.93 86.519 2194.72 96.281 2194.72 106.241 Z" fill="rgb(231,208,255)"></path><path d="M 1633.66 171.012 L 1633.66 89.453 L 1606.028 89.453 L 1606.028 171.012 Z" fill="rgb(245,236,255)"></path><path d="M 1606.03 89.453 L 1596.23 92.136 L 1596.23 171.013 L 1606.03 171.013 Z" fill="rgb(240,225,255)"></path><path d="M 1611.38 103.269 L 1611.38 97.029 L 1618.065 97.029 L 1618.065 103.269 Z" fill="rgb(240,225,255)"></path><path d="M 1611.38 113.965 L 1611.38 107.726 L 1618.065 107.726 L 1618.065 113.965 Z" fill="rgb(240,225,255)"></path><path d="M 1611.38 124.662 L 1611.38 118.422 L 1618.065 118.422 L 1618.065 124.662 Z" fill="rgb(240,225,255)"></path><path d="M 1611.38 135.359 L 1611.38 129.119 L 1618.065 129.119 L 1618.065 135.359 Z" fill="rgb(240,225,255)"></path><path d="M 1611.38 146.054 L 1611.38 139.814 L 1618.065 139.814 L 1618.065 146.054 Z" fill="rgb(240,225,255)"></path><path d="M 1611.38 156.751 L 1611.38 150.511 L 1618.065 150.511 L 1618.065 156.751 Z" fill="rgb(240,225,255)"></path><path d="M 1611.38 167.447 L 1611.38 161.207 L 1618.065 161.207 L 1618.065 167.447 Z" fill="rgb(240,225,255)"></path><path d="M 1622.07 103.269 L 1622.07 97.029 L 1628.755 97.029 L 1628.755 103.269 Z" fill="rgb(240,225,255)"></path><path d="M 1622.07 113.965 L 1622.07 107.726 L 1628.755 107.726 L 1628.755 113.965 Z" fill="rgb(240,225,255)"></path><path d="M 1622.07 124.662 L 1622.07 118.422 L 1628.755 118.422 L 1628.755 124.662 Z" fill="rgb(240,225,255)"></path><path d="M 1622.07 135.359 L 1622.07 129.119 L 1628.755 129.119 L 1628.755 135.359 Z" fill="rgb(240,225,255)"></path><path d="M 1622.07 146.054 L 1622.07 139.814 L 1628.755 139.814 L 1628.755 146.054 Z" fill="rgb(240,225,255)"></path><path d="M 1622.07 156.751 L 1622.07 150.511 L 1628.755 150.511 L 1628.755 156.751 Z" fill="rgb(240,225,255)"></path><path d="M 1622.07 167.447 L 1622.07 161.207 L 1628.755 161.207 L 1628.755 167.447 Z" fill="rgb(240,225,255)"></path><path d="M 1981.73 91.799 L 1981.73 84.758 L 2012.241 84.758 L 2012.241 91.799 Z" fill="rgb(240,225,255)"></path><path d="M 1981.73 103.535 L 1981.73 96.494 L 2012.241 96.494 L 2012.241 103.535 Z" fill="rgb(240,225,255)"></path><path d="M 1981.73 115.269 L 1981.73 108.228 L 2012.241 108.228 L 2012.241 115.269 Z" fill="rgb(240,225,255)"></path><path d="M 2024.56 139.327 L 2024.56 119.964 L 2039.229 119.964 L 2039.229 139.327 Z" fill="rgb(240,225,255)"></path><path d="M 2024.56 161.037 L 2024.56 141.674 L 2039.229 141.674 L 2039.229 161.037 Z" fill="rgb(240,225,255)"></path><path d="M 1799.65 110.584 L 1835.13 109.401 L 1807.7 118.862 L 1776.95 118.862 Z" fill="rgb(230,209,255)"></path><path d="M 1807.7 170.423 L 1807.7 124.065 L 1815.269 124.065 L 1815.269 170.423 Z" fill="rgb(231,208,255)"></path><path d="M 1823.31 170.423 L 1823.31 124.065 L 1830.879 124.065 L 1830.879 170.423 Z" fill="rgb(231,208,255)"></path><path d="M 1837.5 170.423 L 1837.5 124.065 L 1845.542 124.065 L 1845.542 170.423 Z" fill="rgb(231,208,255)"></path><path d="M 1852.63 170.423 L 1852.63 124.065 L 1861.145 124.065 L 1861.145 170.423 Z" fill="rgb(231,208,255)"></path><path d="M 1863.04 126.432 L 1863.04 118.863 L 1835.13 109.639 L 1807.46 118.863 L 1807.46 126.432 Z" fill="rgb(240,225,255)"></path><path d="M 1786.65 126.668 L 1786.65 118.626 L 1807.464 118.626 L 1807.464 126.668 Z" fill="rgb(235,218,255)"></path><path d="M 1783.1 170.424 L 1783.1 126.431 L 1807.698 126.431 L 1807.698 170.424 Z" fill="rgb(240,225,255)"></path><path d="M 1804.86 170.425 L 1804.86 161.91 L 1866.356 161.91 L 1866.356 170.425 Z" fill="rgb(245,236,255)"></path><path d="M 1749.56 167.483 L 1749.56 113.509 L 1712.678 113.509 L 1712.678 167.483 Z" fill="rgb(245,236,255)"></path><path d="M 1712.68 113.509 L 1700.08 115.284 L 1700.08 167.483 L 1712.68 167.483 Z" fill="rgb(240,225,255)"></path><path d="M 1718.86 128.646 L 1718.86 120.55 L 1727.856 120.55 L 1727.856 128.646 Z" fill="rgb(230,209,255)"></path><path d="M 1718.86 140.381 L 1718.86 132.285 L 1727.856 132.285 L 1727.856 140.381 Z" fill="rgb(230,209,255)"></path><path d="M 1734.11 128.646 L 1734.11 120.55 L 1743.106 120.55 L 1743.106 128.646 Z" fill="rgb(230,209,255)"></path><path d="M 1734.27 140.496 L 1734.27 132.4 L 1743.266 132.4 L 1743.266 140.496 Z" fill="rgb(230,209,255)"></path><path d="M 1726.17 156.689 C 1726.17 153.211 1728.99 150.392 1732.47 150.392 L 1732.47 150.392 C 1735.94 150.392 1738.76 153.211 1738.76 156.689 L 1738.76 167.484 L 1726.17 167.484 Z" fill="rgb(230,209,255)"></path><path d="M 1795.72 168.665 L 1795.72 65.395 L 1758.754 65.395 L 1758.754 168.665 Z" fill="rgb(245,236,255)"></path><path d="M 2415.34 167.49 L 2415.34 94.732 L 2378.374 94.732 L 2378.374 167.49 Z" fill="rgb(245,236,255)"></path><path d="M 1758.76 65.395 L 1745.85 68.792 L 1745.85 168.665 L 1758.76 168.665 Z" fill="rgb(240,225,255)"></path><path d="M 2378.38 94.732 L 2365.47 97.126 L 2365.47 167.49 L 2378.38 167.49 Z" fill="rgb(240,225,255)"></path><path d="M 1765.802 76.543 L 1775.19 76.543 L 1775.19 156.342 L 1765.802 156.342 Z" fill="rgb(240,225,255)"></path><path d="M 2386.002 100.601 L 2395.39 100.601 L 2395.39 163.971 L 2386.002 163.971 Z" fill="rgb(240,225,255)"></path><path d="M 1779.292 76.543 L 1788.68 76.543 L 1788.68 156.342 L 1779.292 156.342 Z" fill="rgb(240,225,255)"></path><path d="M 2399.502 100.601 L 2408.89 100.601 L 2408.89 163.971 L 2399.502 163.971 Z" fill="rgb(240,225,255)"></path><path d="M 1638.39 168.071 L 1638.39 142.932 L 1642.826 142.932 L 1642.826 168.071 Z" fill="rgb(214,174,255)"></path><path d="M 1630.259 133.689 C 1630.259 122.868 1634.727 114.096 1640.24 114.096 C 1645.753 114.096 1650.221 122.868 1650.221 133.689 C 1650.221 144.51 1645.753 153.282 1640.24 153.282 C 1634.727 153.282 1630.259 144.51 1630.259 133.689 Z" fill="rgb(230,209,255)"></path><path d="M 1640.24 152.913 L 1640.24 114.466" fill="transparent" stroke-width="0.482267" stroke="rgb(221,199,248)" stroke-miterlimit="10" stroke-dasharray=""></path><path d="M 1640.61 125.926 L 1646.89 119.641 M 1640.61 133.689 L 1637.65 131.205 M 1631.37 125.926 L 1634.69 128.721 M 1634.69 128.721 L 1634.69 117.793 M 1634.69 128.721 L 1637.65 131.205 M 1637.65 131.205 L 1633.21 135.168 M 1640.61 142.932 L 1646.89 138.865 L 1646.89 134.614 M 1649.48 127.774 L 1646.89 130.362 L 1646.89 134.614 M 1646.89 134.614 L 1650.59 133.689 M 1640.61 148.477 L 1634.69 143.981 M 1631.37 141.453 L 1634.69 143.981 M 1634.69 143.981 L 1634.69 137.756" fill="transparent" stroke-width="0.482267" stroke="rgb(221,199,248)" stroke-miterlimit="10" stroke-dasharray=""></path><path d="M 2269.82 75.956 C 2264.41 93.95 2243.44 129.938 2202.93 129.938" fill="transparent" stroke-width="1.17352" stroke="rgb(240,225,255)" stroke-miterlimit="10" stroke-dasharray=""></path><path d="M 2284.2 82.411 C 2285.76 90.43 2297.99 112.336 2321.46 124.364" fill="transparent" stroke-width="1.17352" stroke="rgb(240,225,255)" stroke-miterlimit="10" stroke-dasharray=""></path><path d="M 2265.72 167.491 L 2265.72 72.437 L 2285.67 72.437 L 2285.67 167.491 Z" fill="rgb(236,220,255)"></path><path d="M 2322.05 142.261 L 2202.93 142.261 L 2202.93 148.128 L 2322.05 148.128 Z" fill="rgb(214,174,255)"></path><path d="M 2353.62 167.49 L 2353.62 75.956 L 2322.608 75.956 L 2322.608 167.49 Z" fill="rgb(245,236,255)"></path><path d="M 2322.6 75.956 L 2311.6 78.967 L 2311.6 167.49 L 2322.6 167.49 Z" fill="rgb(240,225,255)"></path><path d="M 2328.61 91.463 L 2328.61 84.46 L 2336.113 84.46 L 2336.113 91.463 Z" fill="rgb(240,225,255)"></path><path d="M 2328.61 103.467 L 2328.61 96.464 L 2336.113 96.464 L 2336.113 103.467 Z" fill="rgb(240,225,255)"></path><path d="M 2328.61 115.471 L 2328.61 108.469 L 2336.113 108.469 L 2336.113 115.471 Z" fill="rgb(240,225,255)"></path><path d="M 2328.61 127.476 L 2328.61 120.473 L 2336.113 120.473 L 2336.113 127.476 Z" fill="rgb(240,225,255)"></path><path d="M 2328.61 139.481 L 2328.61 132.478 L 2336.113 132.478 L 2336.113 139.481 Z" fill="rgb(240,225,255)"></path><path d="M 2328.61 151.485 L 2328.61 144.482 L 2336.113 144.482 L 2336.113 151.485 Z" fill="rgb(240,225,255)"></path><path d="M 2328.61 163.489 L 2328.61 156.486 L 2336.113 156.486 L 2336.113 163.489 Z" fill="rgb(240,225,255)"></path><path d="M 2340.61 91.463 L 2340.61 84.46 L 2348.113 84.46 L 2348.113 91.463 Z" fill="rgb(240,225,255)"></path><path d="M 2340.61 103.467 L 2340.61 96.464 L 2348.113 96.464 L 2348.113 103.467 Z" fill="rgb(240,225,255)"></path><path d="M 2340.61 115.471 L 2340.61 108.469 L 2348.113 108.469 L 2348.113 115.471 Z" fill="rgb(240,225,255)"></path><path d="M 2340.61 127.476 L 2340.61 120.473 L 2348.113 120.473 L 2348.113 127.476 Z" fill="rgb(240,225,255)"></path><path d="M 2340.61 139.481 L 2340.61 132.478 L 2348.113 132.478 L 2348.113 139.481 Z" fill="rgb(240,225,255)"></path><path d="M 2340.61 151.485 L 2340.61 144.482 L 2348.113 144.482 L 2348.113 151.485 Z" fill="rgb(240,225,255)"></path><path d="M 2340.61 163.489 L 2340.61 156.486 L 2348.113 156.486 L 2348.113 163.489 Z" fill="rgb(240,225,255)"></path><path d="M 2357.17 168.11 L 2357.17 148.418 L 2360.645 148.418 L 2360.645 168.11 Z" fill="rgb(214,174,255)"></path><path d="M 2350.801 141.178 C 2350.801 132.701 2354.302 125.83 2358.62 125.83 C 2362.938 125.83 2366.439 132.701 2366.439 141.178 C 2366.439 149.655 2362.938 156.526 2358.62 156.526 C 2354.302 156.526 2350.801 149.655 2350.801 141.178 Z" fill="rgb(230,209,255)"></path><path d="M 2358.62 156.237 L 2358.62 126.12" fill="transparent" stroke-width="0.586759" stroke="rgb(221,199,248)" stroke-miterlimit="10" stroke-dasharray=""></path><path d="M 2358.91 135.097 L 2363.83 130.174 M 2358.91 141.178 L 2356.59 139.232 M 2351.67 135.097 L 2354.27 137.286 M 2354.27 137.286 L 2354.27 128.726 M 2354.27 137.286 L 2356.59 139.232 M 2356.59 139.232 L 2353.11 142.336 M 2358.91 148.418 L 2363.83 145.232 L 2363.83 141.902 M 2365.86 136.545 L 2363.83 138.572 L 2363.83 141.902 M 2363.83 141.902 L 2366.72 141.178 M 2358.91 152.762 L 2354.27 149.24 M 2351.67 147.26 L 2354.27 149.24 M 2354.27 149.24 L 2354.27 144.364" fill="transparent" stroke-width="0.586759" stroke="rgb(221,199,248)" stroke-miterlimit="10" stroke-dasharray=""></path><g transform="translate(1703.6 138.74)"><g><defs><linearGradient id="idss9521166825_369g-208772696" x1="0.49751243781094523" x2="0.5024875621890548" y1="0" y2="1"><stop offset="0" stop-color="rgb(217,217,217)" stop-opacity="1"></stop><stop offset="1" stop-color="rgba(217,217,217,0)" stop-opacity="0"></stop></linearGradient></defs><path d="M 0 7.041 L 3.52 0 L 5.87 0 L 2.35 7.041 Z" fill="url(#idss9521166825_369g-208772696)"></path></g></g></svg>